<?xml version="1.0" standalone="no"?><!DOCTYPE svg PUBLIC "-//W3C//DTD SVG 1.1//EN" "http://www.w3.org/Graphics/SVG/1.1/DTD/svg11.dtd"><svg t="1783692833424" class="icon" viewBox="0 0 1024 1024" version="1.1" xmlns="http://www.w3.org/2000/svg" p-id="17076" xmlns:xlink="http://www.w3.org/1999/xlink" width="200" height="200"><path d="M556.664757 243.934708l178.667216 0 0 535.9996L288.664957 779.934309 288.664957 243.934708l223.334531 0 0 44.753273-44.667316 0 0 44.665269 44.667316 0 0 44.667316-44.667316 0 0 44.621267 44.667316 0 0 44.623313-44.667316 0 0 44.665269 0 134.043902 89.333608 0L556.665781 511.932462l-44.665269 0 0-44.665269 44.665269 0 0-44.623313-44.665269 0 0-44.621267 44.665269 0 0-44.667316-44.665269 0L512.000512 288.687982l44.665269 0L556.665781 243.934708zM958.70846 243.934708l0 535.9996c0 98.711186-80.08599 178.709171-178.711218 178.709171L243.998665 958.64348c-98.711186 0-178.709171-79.997985-178.709171-178.709171L65.289494 243.934708c0-98.581226 79.997985-178.579211 178.709171-178.579211l535.998577 0C878.62247 65.355497 958.70846 145.353482 958.70846 243.934708zM869.286848 288.687982c0-74.067926-59.932997-134.042879-133.954875-134.042879L288.664957 154.645103c-74.021877 0-133.954875 59.974953-133.954875 134.042879l0 446.577988c0 74.023924 59.932997 134.086881 133.954875 134.086881l446.667016 0c74.021877 0 133.954875-60.062957 133.954875-134.086881L869.286848 288.687982z" p-id="17077"></path></svg>