<?xml version="1.0" standalone="no"?><!DOCTYPE svg PUBLIC "-//W3C//DTD SVG 1.1//EN" "http://www.w3.org/Graphics/SVG/1.1/DTD/svg11.dtd"><svg t="1783692214564" class="icon" viewBox="0 0 1228 1024" version="1.1" xmlns="http://www.w3.org/2000/svg" p-id="8565" xmlns:xlink="http://www.w3.org/1999/xlink" width="239.84375" height="200"><path d="M8.533333 0h1024v1024H8.533333z" fill="#D8D8D8" fill-opacity="0" p-id="8566"></path><path d="M285.866667 85.333333H648.533333a149.333333 149.333333 0 0 1 149.333334 149.333334V341.333333a42.666667 42.666667 0 0 1-42.666667 42.666667h-469.333333a42.666667 42.666667 0 0 1-42.666667-42.666667V128a42.666667 42.666667 0 0 1 42.666667-42.666667z" fill="#4A90E2" fill-opacity=".6" p-id="8567"></path><path d="M243.2 640m42.666667 0l469.333333 0q42.666667 0 42.666667 42.666667l0 213.333333q0 42.666667-42.666667 42.666667l-469.333333 0q-42.666667 0-42.666667-42.666667l0-213.333333q0-42.666667 42.666667-42.666667Z" fill="#4A90E2" p-id="8568"></path><path d="M833.408 768v-170.666667H207.658667v170.666667H93.866667a42.666667 42.666667 0 0 1-42.666667-42.666667V298.666667a42.666667 42.666667 0 0 1 42.666667-42.666667h113.792v170.666667h625.749333V256H947.2a42.666667 42.666667 0 0 1 42.666667 42.666667v426.666666a42.666667 42.666667 0 0 1-42.666667 42.666667h-113.792z" fill="#4A90E2" p-id="8569"></path><path d="M123.733333 328.533333m-42.666666 0a42.666667 42.666667 0 1 0 85.333333 0 42.666667 42.666667 0 1 0-85.333333 0Z" fill="#E02020" p-id="8570"></path></svg>