<?xml version="1.0" standalone="no"?><!DOCTYPE svg PUBLIC "-//W3C//DTD SVG 1.1//EN" "http://www.w3.org/Graphics/SVG/1.1/DTD/svg11.dtd"><svg t="1784721554961" class="icon" viewBox="0 0 1084 1024" version="1.1" xmlns="http://www.w3.org/2000/svg" p-id="9046" xmlns:xlink="http://www.w3.org/1999/xlink" width="211.71875" height="200"><path d="M90.352941 0h903.529412a90.352941 90.352941 0 0 1 90.352941 90.352941v271.058824H0V90.352941a90.352941 90.352941 0 0 1 90.352941-90.352941z" fill="#4E98FE" p-id="9047"></path><path d="M90.352941 1024h903.529412a90.352941 90.352941 0 0 0 90.352941-90.352941v-271.058824H0v271.058824a90.352941 90.352941 0 0 0 90.352941 90.352941z" fill="#7DCE3B" p-id="9048"></path><path d="M0 331.294118h1084.235294v361.411764H0z" fill="#F85F5D" p-id="9049"></path><path d="M406.588235 0h271.058824v1024h-271.058824z" fill="#FCAF44" p-id="9050"></path><path d="M722.823529 376.470588v271.058824H361.411765v-271.058824h361.411764zM677.647059 421.647059h-271.058824v180.705882h271.058824v-180.705882z" fill="#FFFFFF" p-id="9051"></path></svg>